{"title":"Maroon 5 Ft. Wiz Khalifa - Payphone [Explicit] 720p [Sbyky]","uid":8838018,"size":71042728,"categoryP":"video","categoryS":"music_videos","magnet":"?xt=urn:btih:91853bdbf57b75a4d6953162531831add0b3b0cf&amp;dn=Maroon+5+Ft.+Wiz+Khalifa+-+Payphone+%5BExplicit%5D+720p+%5BSbyky%5D&amp;tr=udp%3A%2F%2Ftracker.openbittorrent.com%3A80&amp;tr=udp%3A%2F%2Fopen.demonii.com%3A1337&amp;tr=udp%3A%2F%2Ftracker.coppersurfer.tk%3A6969&amp;tr=udp%3A%2F%2Fexodus.desync.com%3A6969","seeders":0,"leechers":1,"uploader":"Sbyky","files":-1,"time":1377132561,"description":"[IMG]http://yuq.me/users/18/139/vZ2APNXElh.png[/IMG]\n\nGeneral\nComplete name                            : Maroon 5 Ft. Wiz Khalifa - Payphone [Explicit] 720p [Sbyky].MP4\nFormat                                   : MPEG-4\nFormat profile                           : Base Media / Version 2\nCodec ID                                 : mp42\nFile size                                : 67.8 MiB\nDuration                                 : 4mn 39s\nOverall bit rate mode                    : Variable\nOverall bit rate                         : 2 034 Kbps\nEncoded date                             : UTC 2012-05-09 21:10:40\nTagged date                              : UTC 2012-05-09 21:10:40\n\nVideo\nID                                       : 1\nFormat                                   : AVC\nFormat/Info                              : Advanced Video Codec\nFormat profile                           : &lt;a class=&quot;__cf_email__&quot; href=&quot;/cdn-cgi/l/email-protection&quot; data-cfemail=&quot;1b53727c735b5728352a&quot;&gt;[email&amp;#160;protected]&lt;/a&gt;&lt;script cf-hash='f9e31' type=&quot;text/javascript&quot;&gt;\n/* &lt;![CDATA[ */!function(){try{var t=&quot;currentScript&quot;in document?document.currentScript:function(){for(var t=document.getElementsByTagName(&quot;script&quot;),e=t.length;e--;)if(t[e].getAttribute(&quot;cf-hash&quot;))return t[e]}();if(t&amp;&amp;t.previousSibling){var e,r,n,i,c=t.previousSibling,a=c.getAttribute(&quot;data-cfemail&quot;);if(a){for(e=&quot;&quot;,r=parseInt(a.substr(0,2),16),n=2;a.length-n;n+=2)i=parseInt(a.substr(n,2),16)^r,e+=String.fromCharCode(i);e=document.createTextNode(e),c.parentNode.replaceChild(e,c)}}}catch(u){}}();/* ]]&gt; */&lt;/script&gt;\nFormat settings, CABAC                   : Yes\nFormat settings, ReFrames                : 1 frame\nFormat settings, GOP                     : M=1, N=30\nCodec ID                                 : avc1\nCodec ID/Info                            : Advanced Video Coding\nDuration                                 : 4mn 39s\nBit rate                                 : 1 883 Kbps\nMaximum bit rate                         : 4 787 Kbps\nWidth                                    : 1 280 pixels\nHeight                                   : 720 pixels\nDisplay aspect ratio                     : 16:9\nFrame rate mode                          : Constant\nFrame rate                               : 23.976 fps\nColor space                              : YUV\nChroma subsampling                       : 4:2:0\nBit depth                                : 8 bits\nScan type                                : Progressive\nBits/(Pixel*Frame)                       : 0.085\nStream size                              : 62.7 MiB (93%)\nTagged date                              : UTC 2012-05-09 21:10:40\n\nAudio\nID                                       : 2\nFormat                                   : AAC\nFormat/Info                              : Advanced Audio Codec\nFormat profile                           : LC\nCodec ID                                 : 40\nDuration                                 : 4mn 39s\nBit rate mode                            : Variable\nBit rate                                 : 149 Kbps\nMaximum bit rate                         : 181 Kbps\nChannel(s)                               : 2 channels\nChannel positions                        : Front: L R\nSampling rate                            : 44.1 KHz\nCompression mode                         : Lossy\nStream size                              : 4.96 MiB (7%)\nTitle                                    : IsoMedia File Produced by Google, 5-11-2011\nEncoded date                             : UTC 2012-05-09 21:10:40\nTagged date                              : UTC 2012-05-09 21:10:40\n\nShared By Sbyky\n[IMG]http://yuq.me/users/18/139/0aq32UMZvX.gif[/IMG]\n[IMG]http://yuq.me/users/18/139/bQg62viaEG.gif[/IMG]","torrent":{"xt":"urn:btih:91853bdbf57b75a4d6953162531831add0b3b0cf","amp;dn":"Maroon+5+Ft.+Wiz+Khalifa+-+Payphone+%5BExplicit%5D+720p+%5BSbyky%5D","amp;tr":["udp%3A%2F%2Ftracker.openbittorrent.com%3A80","udp%3A%2F%2Fopen.demonii.com%3A1337","udp%3A%2F%2Ftracker.coppersurfer.tk%3A6969","udp%3A%2F%2Fexodus.desync.com%3A6969"],"infoHash":"91853bdbf57b75a4d6953162531831add0b3b0cf","infoHashBuffer":{"type":"Buffer","data":[145,133,59,219,245,123,117,164,214,149,49,98,83,24,49,173,208,179,176,207]},"announce":[],"urlList":[]}}